<svg xmlns="http://www.w3.org/2000/svg" viewBox="0 0 148.05 148.05"><defs><style>.cls-1{fill:#636e7e;}.cls-2{fill:#e6e7e8;}.cls-3{fill:#fff;}.cls-4{fill:#f1f2f2;}</style></defs><title>logo_negru</title><g id="Layer_2" data-name="Layer 2"><g id="Layer_1-2" data-name="Layer 1"><path class="cls-1" d="M148.05,74h0c0-58.42-32.37-74-74-74h0C32.37,0,0,15.6,0,74H0c0,58.42,32.37,74,74,74h0c41.66,0,74-15.6,74-74h0Z"/><rect class="cls-2" x="39.88" y="57.98" width="34.15" height="34.15"/><rect class="cls-3" x="69.03" y="28.85" width="34.15" height="34.15" transform="translate(-7.25 74.33) rotate(-45)"/><polygon class="cls-4" points="74.03 126.28 39.88 92.13 74.03 92.13 74.03 126.28"/><polygon class="cls-4" points="37.81 21.78 86.1 21.78 61.95 45.92 37.81 21.78"/><rect class="cls-3" x="74.03" y="92.13" width="34.15" height="34.15"/></g></g></svg>